<svg width="512" height="512" viewBox="0 0 512 512" fill="none" xmlns="http://www.w3.org/2000/svg">
<path d="M337.688 337.687C247.459 337.687 174.315 264.542 174.315 174.314C174.315 84.0852 247.459 10.9406 337.688 10.9406C427.916 10.9406 501.061 84.0852 501.061 174.314C501.061 264.542 427.916 337.687 337.688 337.687Z" fill="#959CB5"/>
<path d="M337.688 291.008C273.239 291.008 220.993 238.762 220.993 174.313C220.993 109.865 273.239 57.6191 337.688 57.6191C402.136 57.6191 454.382 109.865 454.382 174.313C454.382 238.762 402.136 291.008 337.688 291.008Z" fill="#BAEFFF"/>
<path d="M273.114 228.771C277.129 233.252 284.453 230.384 284.44 224.368C284.44 224.312 284.44 224.258 284.44 224.202C284.44 167.242 330.616 121.065 387.576 121.065C387.632 121.065 387.687 121.065 387.743 121.065C393.758 121.079 396.624 113.754 392.144 109.74C376.626 95.8381 355.962 87.586 333.322 88.2915C289.115 89.6698 253.048 125.733 251.666 169.94C250.959 192.584 259.214 213.25 273.114 228.771Z" fill="#D4F5FF"/>
<path d="M67.2824 494.224L185.98 375.526C195.093 366.413 195.093 351.635 185.98 342.52L169.483 326.023C160.369 316.909 145.591 316.909 136.477 326.023L17.7789 444.72C8.66565 453.834 8.66565 468.612 17.7789 477.726L34.2764 494.224C43.3897 503.338 58.1664 503.338 67.2824 494.224Z" fill="#707487"/>
<path d="M47.3582 474.3L166.056 355.602C174.584 347.074 175.025 333.648 167.597 324.482C168.227 324.994 168.896 325.434 169.483 326.023L185.98 342.52C195.093 351.636 195.093 366.411 185.98 375.526L67.2824 494.224C58.1664 503.34 43.3911 503.34 34.2764 494.224L17.779 477.726C17.1921 477.14 16.7486 476.472 16.2382 475.842C25.4034 483.27 38.8304 482.827 47.3582 474.3Z" fill="#5B5D6E"/>
<path d="M337.688 46.6786C408.067 46.6786 465.323 103.935 465.323 174.314C465.323 244.692 408.067 301.949 337.688 301.949C267.309 301.949 210.053 244.692 210.053 174.314C210.053 103.935 267.309 46.6786 337.688 46.6786ZM337.688 280.069C396.002 280.069 443.443 232.627 443.443 174.314C443.443 116 396.002 68.5584 337.688 68.5584C279.374 68.5584 231.933 116 231.933 174.314C231.933 232.627 279.374 280.069 337.688 280.069Z" fill="black"/>
<path d="M10.0412 436.984L128.739 318.286C142.103 304.921 163.851 304.921 177.217 318.286L177.731 318.799L207 289.53C179.865 258.788 163.373 218.444 163.373 174.314C163.373 78.1957 241.569 0 337.686 0C433.804 0 512 78.1957 512 174.314C512 270.431 433.804 348.627 337.686 348.627C293.557 348.627 253.212 332.135 222.47 305.001L193.201 334.271L193.714 334.784C207.078 348.149 207.078 369.897 193.714 383.262L75.0159 501.96C68.5419 508.434 59.9336 512 50.7766 512C41.6211 512 33.0114 508.434 26.5374 501.96L10.0398 485.463C3.56583 478.989 -4.48965e-06 470.38 -4.48965e-06 461.223C0.00136018 452.066 3.56721 443.458 10.0412 436.984ZM490.12 174.314C490.12 90.2607 421.739 21.8811 337.688 21.8811C253.636 21.8811 185.255 90.2621 185.255 174.314C185.255 258.365 253.636 326.746 337.688 326.746C421.739 326.746 490.12 258.366 490.12 174.314ZM25.5139 469.99L42.0114 486.487C44.3531 488.829 47.466 490.12 50.778 490.12C54.0901 490.12 57.2029 488.831 59.546 486.487L178.244 367.79C183.077 362.956 183.077 355.089 178.244 350.255L161.746 333.758C159.329 331.341 156.155 330.132 152.978 330.132C149.804 330.132 146.627 331.341 144.212 333.756L25.5139 452.454C23.1721 454.796 21.8811 457.91 21.8811 461.222C21.8811 464.534 23.1707 467.648 25.5139 469.99Z" fill="black"/>
<path d="M276.334 128.787C282.14 127.129 288.197 130.49 289.859 136.301L308.869 202.835L327.308 147.515C328.797 143.048 332.978 140.036 337.686 140.036C342.395 140.036 346.576 143.049 348.065 147.515L366.504 202.835L385.514 136.301C387.173 130.491 393.233 127.125 399.039 128.787C404.847 130.446 408.213 136.501 406.553 142.312L383.215 223.998C381.873 228.696 377.58 231.933 372.696 231.933H361.026C356.318 231.933 352.137 228.919 350.648 224.453L337.688 185.572L324.727 224.453C323.239 228.921 319.057 231.933 314.349 231.933H302.68C297.794 231.933 293.502 228.694 292.161 223.998L268.822 142.312C267.162 136.501 270.525 130.445 276.334 128.787Z" fill="black"/>
</svg>
